<?xml version="1.0" encoding="UTF-8"?>
<svg xmlns="http://www.w3.org/2000/svg" xmlns:xlink="http://www.w3.org/1999/xlink" width="16px" height="16px" viewBox="0 0 16 16" version="1.1">
<g id="surface1925">
<path style=" stroke:none;fill-rule:nonzero;fill:rgb(14.117648%,12.156863%,19.215687%);fill-opacity:1;" d="M 9.699219 4.164062 L 9.269531 8.421875 C 9.199219 9.164062 9.164062 9.90625 9.164062 10.644531 C 9.164062 12.058594 9.328125 12.921875 9.65625 13.226562 C 9.992188 13.523438 10.371094 13.671875 10.796875 13.671875 C 11.746094 13.671875 12.308594 13.074219 12.488281 11.878906 L 13.035156 11.878906 C 12.710938 14.625 11.617188 16 9.757812 16 C 7.8125 16 6.835938 14.882812 6.835938 12.648438 C 6.835938 11.519531 6.945312 10.117188 7.164062 8.4375 L 7.710938 4.164062 L 6.242188 4.164062 C 5.433594 4.164062 4.800781 4.304688 4.34375 4.582031 C 3.902344 4.847656 3.484375 5.390625 3.097656 6.210938 L 2.566406 6.210938 C 2.882812 5.125 3.257812 4.265625 3.691406 3.632812 C 4.128906 2.988281 4.542969 2.558594 4.9375 2.339844 C 5.335938 2.113281 5.921875 2 6.703125 2 L 14 2 L 14 4.164062 Z M 9.699219 4.164062 "/>
</g>
</svg>
