<?xml version="1.0" encoding="UTF-8" standalone="no"?>
<svg
   xmlns:dc="http://purl.org/dc/elements/1.1/"
   xmlns:cc="http://creativecommons.org/ns#"
   xmlns:rdf="http://www.w3.org/1999/02/22-rdf-syntax-ns#"
   xmlns:svg="http://www.w3.org/2000/svg"
   xmlns="http://www.w3.org/2000/svg"
   xmlns:sodipodi="http://sodipodi.sourceforge.net/DTD/sodipodi-0.dtd"
   xmlns:inkscape="http://www.inkscape.org/namespaces/inkscape"
   id="svg"
   version="1.1"
   width="128"
   height="128"
   viewBox="0 0 128 128"
   sodipodi:docname="org.gnome.Tau.svg"
   inkscape:version="">
  <metadata
     id="metadata172">
    <rdf:RDF>
      <cc:Work
         rdf:about="">
        <dc:format>image/svg+xml</dc:format>
        <dc:type
           rdf:resource="http://purl.org/dc/dcmitype/StillImage" />
        <dc:title></dc:title>
      </cc:Work>
    </rdf:RDF>
  </metadata>
  <defs
     id="defs170" />
  <sodipodi:namedview
     pagecolor="#ffffff"
     bordercolor="#666666"
     borderopacity="1"
     objecttolerance="10"
     gridtolerance="10"
     guidetolerance="10"
     inkscape:pageopacity="0"
     inkscape:pageshadow="2"
     inkscape:window-width="3840"
     inkscape:window-height="2031"
     id="namedview168"
     showgrid="false"
     inkscape:zoom="11.313709"
     inkscape:cx="79.399349"
     inkscape:cy="68.386344"
     inkscape:window-x="0"
     inkscape:window-y="55"
     inkscape:window-maximized="1"
     inkscape:current-layer="svg" />
  <g
     id="svgg"
     transform="matrix(0.67801044,0,0,0.67565759,-58.045847,-49.270519)">
    <path
       id="path0"
       d="m 173,96.188 c -2.497,0.265 -4.445,0.588 -7,1.162 -0.413,0.093 -1.013,0.211 -1.333,0.262 -0.321,0.052 -0.659,0.15 -0.75,0.219 -0.092,0.069 -0.567,0.176 -1.057,0.238 -0.489,0.062 -1.014,0.182 -1.166,0.267 -0.428,0.237 -1.835,0.664 -2.19,0.664 -0.175,0 -0.364,0.075 -0.421,0.167 -0.056,0.091 -0.249,0.166 -0.428,0.166 -0.18,0 -0.456,0.067 -0.616,0.149 -0.689,0.355 -3.918,1.518 -4.214,1.518 -0.179,0 -0.325,0.075 -0.325,0.167 0,0.091 -0.073,0.166 -0.162,0.166 -0.392,0 -5.833,2.63 -7.133,3.448 -0.483,0.304 -0.936,0.552 -1.008,0.552 -0.071,0 -0.651,0.345 -1.288,0.766 -0.638,0.422 -1.309,0.834 -1.492,0.917 -0.49,0.22 -0.962,0.533 -1.248,0.826 -0.139,0.142 -0.536,0.431 -0.882,0.641 -1.319,0.802 -1.363,0.975 -0.412,1.615 0.39,0.262 0.933,0.648 1.208,0.858 0.708,0.541 0.733,0.559 1.75,1.25 1.224,0.831 1.918,1.316 7.417,5.182 0.458,0.322 1.672,1.159 2.697,1.86 1.025,0.701 1.953,1.382 2.062,1.513 0.109,0.132 0.26,0.239 0.336,0.239 0.076,0 2.186,1.444 4.69,3.208 2.503,1.765 4.888,3.433 5.3,3.708 0.412,0.275 0.786,0.545 0.832,0.599 0.099,0.12 2.068,1.497 2.478,1.735 0.158,0.092 0.585,0.392 0.947,0.667 0.363,0.275 0.783,0.575 0.933,0.666 0.943,0.574 6.107,4.257 6.257,4.463 0.278,0.382 0.519,1.369 0.801,3.287 0.155,1.054 0.344,2.179 0.42,2.5 0.235,0.983 0.493,2.36 0.672,3.584 0.094,0.641 0.24,1.541 0.324,2 0.084,0.458 0.271,1.508 0.415,2.333 0.145,0.825 0.334,1.875 0.419,2.333 0.085,0.459 0.223,1.287 0.305,1.841 0.083,0.553 0.2,1.161 0.26,1.35 0.06,0.189 0.185,0.861 0.278,1.493 0.226,1.546 0.448,2.827 0.646,3.733 0.09,0.412 0.167,1.064 0.171,1.448 0.004,0.385 0.082,0.745 0.174,0.802 0.091,0.057 0.166,0.4 0.166,0.762 0,0.363 0.073,0.789 0.161,0.949 0.089,0.159 0.236,0.889 0.329,1.622 0.092,0.734 0.216,1.615 0.274,1.959 0.103,0.608 0.093,0.625 -0.402,0.625 -0.28,0 -0.555,0.075 -0.612,0.166 -0.056,0.092 -0.337,0.167 -0.623,0.167 -0.286,0 -0.75,0.07 -1.032,0.156 -0.462,0.142 -2.24,0.437 -3.761,0.626 -0.321,0.039 -0.734,0.138 -0.917,0.22 -0.183,0.081 -0.671,0.186 -1.083,0.234 -1.272,0.147 -3.57,0.531 -3.834,0.64 -0.137,0.058 -0.587,0.142 -1,0.189 -0.756,0.085 -3.045,0.475 -4.583,0.78 -0.458,0.092 -1.246,0.236 -1.75,0.322 -1.647,0.279 -3.899,0.682 -4.75,0.849 -0.458,0.09 -1.433,0.24 -2.167,0.333 -0.733,0.093 -1.483,0.235 -1.666,0.317 -0.184,0.082 -0.634,0.188 -1,0.236 -0.367,0.048 -1.278,0.174 -2.025,0.281 l -1.359,0.194 -1.141,-0.784 c -0.628,-0.432 -1.667,-1.154 -2.309,-1.606 -0.641,-0.452 -1.654,-1.161 -2.25,-1.577 -0.596,-0.415 -1.871,-1.31 -2.833,-1.989 -0.963,-0.678 -2.275,-1.591 -2.917,-2.027 -0.641,-0.437 -1.463,-1.023 -1.825,-1.302 -0.362,-0.28 -0.781,-0.584 -0.93,-0.675 -0.567,-0.349 -4.407,-3.024 -7.379,-5.14 -0.751,-0.535 -1.853,-1.307 -2.449,-1.714 -0.596,-0.407 -1.721,-1.191 -2.5,-1.741 -0.779,-0.55 -1.792,-1.258 -2.25,-1.573 -0.458,-0.316 -1.021,-0.707 -1.25,-0.868 -8.286,-5.846 -7.833,-5.608 -7.833,-4.127 0,0.216 -0.075,0.439 -0.167,0.496 -0.092,0.057 -0.167,0.312 -0.167,0.567 0,0.254 -0.16,1.056 -0.355,1.781 -0.196,0.725 -0.462,2.144 -0.592,3.152 -0.13,1.008 -0.316,2.433 -0.414,3.167 -0.238,1.775 -0.367,14.226 -0.152,14.666 0.089,0.184 0.201,0.896 0.248,1.584 0.13,1.879 0.528,4.624 0.835,5.75 0.274,1.006 0.538,2.3 0.708,3.459 0.05,0.344 0.158,0.668 0.24,0.718 0.082,0.051 0.149,0.235 0.149,0.41 0,0.361 0.429,1.766 0.672,2.202 0.089,0.159 0.161,0.436 0.161,0.615 0,0.179 0.071,0.37 0.157,0.423 0.087,0.053 0.208,0.434 0.27,0.845 0.061,0.412 0.178,0.789 0.259,0.84 0.081,0.05 0.148,0.197 0.148,0.326 0,0.13 0.182,0.632 0.405,1.115 0.224,0.484 0.517,1.218 0.653,1.63 0.135,0.412 0.515,1.323 0.844,2.022 0.329,0.7 0.598,1.329 0.598,1.396 0,0.189 1.002,2.131 1.246,2.415 0.118,0.138 0.265,0.418 0.328,0.623 0.098,0.321 0.558,1.17 1.181,2.181 0.095,0.154 0.341,0.58 0.547,0.946 0.205,0.367 0.522,0.892 0.704,1.167 0.182,0.275 0.376,0.631 0.432,0.792 0.055,0.16 0.167,0.291 0.248,0.291 0.081,0 0.147,0.073 0.147,0.161 0,0.14 2.246,3.391 2.737,3.963 0.099,0.115 0.442,0.548 0.763,0.962 2.397,3.096 5.595,6.521 8.5,9.106 2.307,2.053 2.618,2.308 2.814,2.308 0.102,0 0.186,0.06 0.186,0.133 0,0.073 0.386,0.427 0.859,0.787 0.472,0.36 0.941,0.736 1.041,0.835 0.101,0.1 0.427,0.324 0.725,0.499 0.298,0.175 0.542,0.377 0.542,0.449 0,0.072 0.078,0.131 0.173,0.131 0.096,0 0.58,0.3 1.077,0.666 0.496,0.367 0.98,0.667 1.076,0.667 0.095,0 0.174,0.075 0.174,0.167 0,0.091 0.075,0.166 0.168,0.166 0.092,0 0.473,0.222 0.847,0.492 0.373,0.27 1.029,0.659 1.457,0.863 0.427,0.205 1.003,0.537 1.278,0.739 0.583,0.428 6.274,3.24 6.558,3.24 0.105,0 0.192,0.075 0.192,0.166 0,0.092 0.151,0.167 0.335,0.167 0.185,0 0.466,0.071 0.625,0.159 0.255,0.139 0.774,0.363 1.956,0.844 0.184,0.074 0.746,0.263 1.25,0.42 0.504,0.156 1.032,0.34 1.172,0.409 0.141,0.069 0.514,0.182 0.828,0.251 0.315,0.069 0.688,0.186 0.828,0.259 0.575,0.3 1.913,0.663 3.422,0.927 0.275,0.048 0.65,0.149 0.834,0.224 0.183,0.075 0.933,0.267 1.666,0.425 0.734,0.158 1.506,0.354 1.717,0.435 0.21,0.081 0.712,0.147 1.115,0.147 0.402,0 0.778,0.075 0.835,0.167 0.057,0.091 0.455,0.168 0.885,0.17 0.43,0.001 1.307,0.079 1.948,0.172 3.873,0.563 10.671,0.747 13.75,0.372 0.779,-0.095 2.392,-0.264 3.584,-0.376 1.191,-0.112 2.297,-0.271 2.456,-0.354 0.159,-0.083 0.629,-0.151 1.044,-0.151 0.415,0 0.884,-0.067 1.044,-0.149 0.267,-0.138 1.424,-0.411 2.622,-0.62 0.275,-0.048 0.65,-0.151 0.834,-0.23 0.183,-0.078 0.558,-0.19 0.833,-0.249 1.867,-0.397 2.353,-0.513 2.5,-0.597 0.092,-0.052 0.617,-0.232 1.167,-0.398 0.55,-0.167 1.15,-0.365 1.333,-0.44 0.183,-0.075 0.798,-0.285 1.367,-0.465 0.568,-0.181 1.281,-0.438 1.583,-0.571 0.303,-0.134 1.075,-0.454 1.717,-0.711 0.641,-0.258 1.314,-0.566 1.495,-0.686 0.181,-0.119 0.462,-0.217 0.625,-0.217 0.163,0 0.296,-0.075 0.296,-0.167 0,-0.092 0.095,-0.167 0.212,-0.167 0.116,0 0.81,-0.309 1.541,-0.687 3.895,-2.014 4.613,-2.417 5.789,-3.251 0.436,-0.309 0.831,-0.562 0.877,-0.562 0.047,0 0.763,-0.468 1.592,-1.041 0.828,-0.573 1.674,-1.155 1.879,-1.292 3.031,-2.035 9.529,-8.126 12.448,-11.667 2.111,-2.561 3.408,-4.24 3.606,-4.666 0.063,-0.138 0.354,-0.55 0.647,-0.917 0.292,-0.367 0.737,-1.042 0.987,-1.5 0.251,-0.458 0.553,-0.946 0.673,-1.083 0.324,-0.373 2.249,-3.769 2.249,-3.968 0,-0.094 0.057,-0.196 0.125,-0.227 0.139,-0.061 0.71,-1.19 1.631,-3.222 0.333,-0.733 0.78,-1.708 0.993,-2.167 0.214,-0.458 0.48,-1.133 0.592,-1.5 0.111,-0.366 0.296,-0.854 0.41,-1.083 0.461,-0.926 0.749,-1.695 0.749,-1.996 0,-0.175 0.075,-0.364 0.167,-0.421 0.092,-0.056 0.167,-0.308 0.167,-0.56 0,-0.251 0.059,-0.528 0.132,-0.615 0.073,-0.087 0.269,-0.608 0.436,-1.158 0.167,-0.55 0.365,-1.15 0.44,-1.333 0.136,-0.332 0.436,-1.801 0.596,-2.917 0.045,-0.321 0.145,-0.733 0.221,-0.917 0.294,-0.712 0.675,-2.443 0.675,-3.071 0,-0.362 0.075,-0.705 0.166,-0.762 0.092,-0.057 0.167,-0.582 0.167,-1.167 0,-0.585 0.075,-1.11 0.167,-1.166 0.091,-0.057 0.167,-0.568 0.168,-1.135 0.001,-0.568 0.079,-1.895 0.175,-2.949 0.476,-5.249 -0.213,-15.692 -1.265,-19.166 -0.152,-0.505 -0.341,-1.255 -0.419,-1.667 -0.078,-0.413 -0.226,-1.2 -0.328,-1.75 -0.102,-0.55 -0.247,-1.15 -0.323,-1.333 -0.075,-0.184 -0.273,-0.784 -0.44,-1.334 -0.167,-0.55 -0.363,-1.071 -0.436,-1.158 -0.073,-0.087 -0.132,-0.364 -0.132,-0.615 0,-0.251 -0.075,-0.503 -0.167,-0.56 -0.092,-0.057 -0.167,-0.282 -0.167,-0.5 0,-0.218 -0.075,-0.443 -0.166,-0.5 -0.092,-0.057 -0.167,-0.231 -0.167,-0.387 0,-0.157 -0.139,-0.546 -0.309,-0.865 -0.17,-0.32 -0.401,-0.881 -0.515,-1.248 -0.113,-0.367 -0.536,-1.355 -0.941,-2.195 -0.404,-0.841 -0.735,-1.591 -0.736,-1.667 -0.002,-0.39 -2.824,-5.575 -3.858,-7.09 -0.169,-0.248 -0.308,-0.529 -0.308,-0.625 0,-0.095 -0.061,-0.173 -0.137,-0.173 -0.075,0 -0.305,-0.336 -0.51,-0.746 -0.205,-0.411 -0.448,-0.793 -0.54,-0.85 -0.092,-0.057 -0.522,-0.649 -0.955,-1.316 -0.434,-0.668 -0.995,-1.466 -1.247,-1.776 -0.251,-0.309 -1.067,-1.312 -1.811,-2.229 -0.745,-0.916 -2.063,-2.416 -2.93,-3.333 -0.867,-0.917 -1.623,-1.719 -1.681,-1.784 -0.331,-0.368 -3.352,-3.165 -3.772,-3.491 -0.275,-0.214 -0.657,-0.539 -0.848,-0.723 -0.574,-0.553 -3.882,-3.072 -5.008,-3.815 -0.354,-0.234 -0.965,-0.653 -1.358,-0.931 -0.393,-0.278 -0.752,-0.506 -0.797,-0.506 -0.046,0 -0.587,-0.328 -1.203,-0.729 -0.616,-0.401 -1.569,-0.974 -2.119,-1.272 -0.55,-0.299 -1.075,-0.601 -1.167,-0.672 -0.232,-0.18 -3.023,-1.572 -3.833,-1.913 -0.367,-0.154 -1.192,-0.527 -1.834,-0.83 -0.641,-0.303 -1.564,-0.673 -2.05,-0.824 -0.486,-0.15 -1.287,-0.457 -1.781,-0.683 -0.494,-0.226 -0.978,-0.41 -1.077,-0.41 -0.099,0 -0.31,-0.069 -0.469,-0.153 -0.159,-0.084 -0.739,-0.274 -1.289,-0.421 -0.55,-0.148 -1.338,-0.389 -1.75,-0.537 -0.413,-0.147 -1.176,-0.351 -1.695,-0.453 -0.52,-0.103 -1.001,-0.243 -1.07,-0.311 -0.068,-0.069 -0.397,-0.125 -0.73,-0.125 -0.333,0 -0.677,-0.068 -0.764,-0.15 -0.087,-0.082 -0.458,-0.189 -0.825,-0.238 -0.366,-0.049 -1.266,-0.211 -2,-0.361 -1.363,-0.278 -2.419,-0.435 -4.916,-0.73 -1.651,-0.195 -13.331,-0.195 -15.167,0 m 18.419,73.854 c 2.086,1.359 2.386,4.605 0.6,6.497 -0.239,0.254 -0.498,0.461 -0.577,0.461 -0.145,0 -1.126,0.405 -1.648,0.681 -0.384,0.202 -1.082,0.194 -1.211,-0.014 -0.056,-0.092 -0.287,-0.167 -0.512,-0.167 -2.251,0 -3.977,-3.846 -2.701,-6.017 1.187,-2.018 4.099,-2.712 6.049,-1.441"
       inkscape:connector-curvature="0"
       style="fill:#040404;fill-rule:evenodd;stroke:none" />
    <path
       id="path1"
       d="m 122.25,73.175 c -0.873,0.134 -2.59,0.42 -3.583,0.597 -0.321,0.057 -0.659,0.162 -0.75,0.233 -0.092,0.071 -0.599,0.183 -1.128,0.248 -0.528,0.066 -1.001,0.186 -1.051,0.266 -0.05,0.081 -0.274,0.148 -0.498,0.148 -0.224,0 -0.407,0.066 -0.407,0.147 0,0.082 -0.335,0.199 -0.746,0.26 -0.41,0.062 -0.79,0.183 -0.843,0.269 -0.053,0.086 -0.265,0.157 -0.471,0.157 -0.205,0 -0.444,0.066 -0.531,0.147 -0.087,0.08 -0.44,0.236 -0.784,0.346 -0.343,0.11 -0.625,0.269 -0.625,0.353 0,0.085 -0.139,0.154 -0.31,0.154 -0.17,0 -0.751,0.224 -1.291,0.498 -0.54,0.274 -1.025,0.499 -1.078,0.5 -0.115,0.002 -3.921,2.269 -4.205,2.504 -0.456,0.378 -2.358,1.763 -2.67,1.945 -0.185,0.108 -0.702,0.576 -1.148,1.041 -0.445,0.465 -0.873,0.845 -0.95,0.845 -0.144,0 -2.404,2.258 -3.003,3 -0.185,0.23 -0.515,0.605 -0.734,0.834 -1.504,1.576 -4.12,5.574 -5.451,8.333 -0.553,1.146 -1.068,2.198 -1.145,2.339 -0.076,0.14 -0.194,0.515 -0.262,0.833 -0.068,0.318 -0.219,0.69 -0.336,0.828 -0.117,0.138 -0.268,0.51 -0.336,0.828 -0.068,0.318 -0.189,0.711 -0.269,0.875 -0.08,0.163 -0.219,0.444 -0.31,0.625 -0.09,0.18 -0.213,0.745 -0.273,1.254 -0.06,0.51 -0.173,0.967 -0.252,1.016 -0.079,0.049 -0.143,0.294 -0.143,0.545 0,0.251 -0.075,0.532 -0.166,0.623 -0.092,0.091 -0.215,0.856 -0.275,1.7 -0.06,0.844 -0.168,1.534 -0.239,1.534 -0.312,0 -0.348,6.016 -0.355,58.417 -0.007,51.807 0.032,58.071 0.365,58.5 0.072,0.091 0.183,0.822 0.248,1.624 0.065,0.802 0.186,1.5 0.27,1.552 0.083,0.051 0.152,0.309 0.152,0.574 0,0.264 0.066,0.521 0.147,0.571 0.081,0.05 0.2,0.516 0.265,1.037 0.065,0.52 0.178,1.065 0.25,1.21 0.249,0.501 0.468,1.1 0.659,1.807 0.106,0.389 0.256,0.708 0.333,0.708 0.078,0 0.193,0.272 0.255,0.604 0.062,0.332 0.179,0.726 0.259,0.875 0.081,0.149 0.515,1.059 0.964,2.023 0.45,0.963 1.167,2.295 1.593,2.96 0.426,0.664 0.775,1.267 0.775,1.339 0,0.072 0.114,0.278 0.253,0.457 0.139,0.179 0.683,0.896 1.208,1.594 1.962,2.606 3.587,4.418 5.513,6.148 0.766,0.688 1.617,1.456 1.893,1.708 0.276,0.252 0.578,0.459 0.672,0.459 0.095,0 0.293,0.135 0.441,0.3 0.409,0.457 2.211,1.7 2.463,1.7 0.123,0 0.223,0.063 0.223,0.14 0,0.077 0.282,0.284 0.625,0.458 0.344,0.175 0.663,0.356 0.709,0.402 0.149,0.149 1.067,0.668 1.833,1.037 0.412,0.198 0.788,0.415 0.835,0.482 0.047,0.066 0.309,0.176 0.583,0.243 0.274,0.067 0.536,0.171 0.582,0.23 0.16,0.207 1.303,0.674 1.65,0.674 0.193,0 0.35,0.075 0.35,0.167 0,0.092 0.146,0.167 0.323,0.167 0.178,0 0.365,0.066 0.415,0.147 0.05,0.081 0.428,0.198 0.839,0.26 0.412,0.061 0.792,0.183 0.846,0.269 0.053,0.086 0.28,0.157 0.504,0.157 0.223,0 0.406,0.075 0.406,0.167 0,0.091 0.221,0.166 0.49,0.166 0.27,0 0.532,0.066 0.582,0.147 0.049,0.081 0.579,0.2 1.176,0.264 0.597,0.064 1.086,0.185 1.086,0.269 0,0.085 0.406,0.154 0.902,0.154 0.497,0 0.928,0.075 0.959,0.167 0.249,0.747 118.856,0.742 119.111,-0.005 0.03,-0.089 0.42,-0.162 0.865,-0.162 0.445,0 0.851,-0.068 0.903,-0.151 0.051,-0.082 0.543,-0.202 1.093,-0.266 0.55,-0.064 1.042,-0.184 1.093,-0.266 0.052,-0.083 0.309,-0.151 0.574,-0.151 0.264,0 0.526,-0.075 0.583,-0.166 0.057,-0.092 0.286,-0.167 0.51,-0.167 0.224,0 0.407,-0.065 0.407,-0.145 0,-0.08 0.303,-0.194 0.674,-0.253 0.37,-0.06 0.82,-0.182 1,-0.272 0.179,-0.09 0.475,-0.238 0.657,-0.33 0.182,-0.092 0.415,-0.167 0.518,-0.167 0.102,0 0.647,-0.215 1.21,-0.478 0.563,-0.263 1.268,-0.581 1.566,-0.707 0.298,-0.126 0.541,-0.286 0.541,-0.355 0,-0.07 0.114,-0.126 0.254,-0.126 0.283,0 1.632,-0.805 1.719,-1.025 0.03,-0.078 0.155,-0.142 0.278,-0.142 0.287,0 1.247,-0.545 1.248,-0.708 0.001,-0.069 0.108,-0.125 0.239,-0.125 0.131,0 0.338,-0.098 0.459,-0.217 0.121,-0.119 0.571,-0.456 0.999,-0.749 0.429,-0.293 0.879,-0.632 1,-0.753 0.122,-0.121 0.345,-0.29 0.496,-0.375 1.335,-0.756 5.464,-4.907 7.283,-7.323 0.483,-0.642 1.042,-1.373 1.242,-1.626 0.381,-0.48 1.037,-1.529 1.224,-1.957 0.06,-0.138 0.272,-0.475 0.472,-0.75 0.2,-0.275 0.47,-0.744 0.6,-1.042 0.129,-0.298 0.292,-0.542 0.361,-0.542 0.07,0 0.126,-0.074 0.126,-0.165 0,-0.276 0.57,-1.501 0.699,-1.501 0.066,0 0.169,-0.263 0.229,-0.584 0.06,-0.321 0.158,-0.583 0.217,-0.583 0.119,0 0.333,-0.491 0.763,-1.75 0.306,-0.894 0.545,-1.497 0.775,-1.951 0.08,-0.156 0.194,-0.606 0.254,-1 0.06,-0.394 0.164,-0.791 0.232,-0.882 0.14,-0.19 0.273,-0.815 0.542,-2.542 0.104,-0.665 0.249,-1.208 0.322,-1.208 0.074,0 0.134,-0.398 0.134,-0.884 0,-0.485 0.094,-0.977 0.208,-1.091 0.307,-0.307 0.307,-116.244 0,-116.55 -0.114,-0.115 -0.208,-0.606 -0.208,-1.092 0,-0.486 -0.064,-0.883 -0.143,-0.883 -0.078,0 -0.193,-0.542 -0.254,-1.205 -0.062,-0.663 -0.185,-1.278 -0.274,-1.367 -0.089,-0.089 -0.162,-0.367 -0.162,-0.618 0,-0.252 -0.075,-0.504 -0.167,-0.56 -0.092,-0.057 -0.167,-0.305 -0.168,-0.552 0,-0.247 -0.113,-0.663 -0.25,-0.926 -0.137,-0.262 -0.249,-0.604 -0.249,-0.758 0,-0.155 -0.059,-0.352 -0.132,-0.439 -0.073,-0.087 -0.232,-0.459 -0.353,-0.825 -0.265,-0.804 -0.628,-1.677 -0.946,-2.276 -0.13,-0.243 -0.235,-0.532 -0.235,-0.641 0,-0.109 -0.14,-0.398 -0.312,-0.641 -0.171,-0.243 -0.365,-0.616 -0.431,-0.828 -0.066,-0.212 -0.487,-0.962 -0.936,-1.666 -0.449,-0.705 -0.92,-1.507 -1.048,-1.782 -0.127,-0.275 -0.372,-0.666 -0.544,-0.87 -0.172,-0.204 -0.486,-0.617 -0.697,-0.917 -1.735,-2.461 -2.852,-3.695 -6.449,-7.124 -1.211,-1.154 -5.964,-4.505 -6.39,-4.505 -0.106,0 -0.193,-0.064 -0.193,-0.142 0,-0.077 -0.319,-0.282 -0.709,-0.453 -0.389,-0.172 -0.745,-0.355 -0.791,-0.406 -0.139,-0.153 -2.429,-1.166 -2.639,-1.166 -0.107,0 -0.195,-0.069 -0.195,-0.154 0,-0.084 -0.281,-0.24 -0.625,-0.345 -0.646,-0.198 -1.25,-0.435 -1.742,-0.684 -0.157,-0.079 -0.588,-0.193 -0.959,-0.252 -0.37,-0.059 -0.674,-0.165 -0.674,-0.234 0,-0.132 -0.22,-0.19 -2,-0.527 -0.596,-0.112 -1.12,-0.253 -1.166,-0.313 -0.046,-0.059 -0.421,-0.163 -0.834,-0.23 -0.412,-0.067 -1.125,-0.185 -1.583,-0.261 -0.458,-0.077 -1.358,-0.219 -2,-0.315 -1.377,-0.205 -114.163,-0.216 -115.5,-0.01 m 65,22.665 c 0.092,0.072 0.767,0.17 1.5,0.217 2.965,0.189 7.598,1.07 11.083,2.106 0.23,0.068 0.867,0.254 1.417,0.413 0.55,0.16 1.115,0.349 1.255,0.419 0.141,0.071 0.51,0.185 0.82,0.253 0.311,0.068 1.067,0.338 1.681,0.599 0.614,0.261 1.483,0.599 1.93,0.749 0.448,0.151 1.359,0.528 2.026,0.839 0.667,0.311 1.255,0.565 1.307,0.565 0.106,0 2.146,1.023 3.564,1.788 2.517,1.356 5.865,3.371 6.412,3.858 0.186,0.165 0.638,0.48 1.005,0.7 0.367,0.219 1.059,0.719 1.539,1.11 0.48,0.391 0.921,0.711 0.98,0.711 0.276,0 5.836,4.899 7.37,6.493 2.233,2.321 4.89,5.466 6.733,7.971 1,1.359 2.295,3.333 2.295,3.499 0,0.096 0.065,0.201 0.145,0.231 0.161,0.062 1.355,1.888 1.355,2.074 0,0.064 0.173,0.349 0.385,0.633 0.344,0.46 0.677,1.076 2.036,3.765 0.754,1.493 2.079,4.496 2.079,4.712 0,0.122 0.063,0.293 0.14,0.38 0.078,0.087 0.349,0.683 0.603,1.325 0.254,0.642 0.523,1.317 0.596,1.5 0.074,0.183 0.182,0.558 0.239,0.833 0.057,0.275 0.281,0.988 0.499,1.584 0.217,0.595 0.485,1.495 0.596,2 0.11,0.504 0.259,1.066 0.33,1.25 0.07,0.183 0.22,0.783 0.332,1.333 0.111,0.55 0.298,1.337 0.415,1.75 0.465,1.647 0.63,2.703 1.076,6.917 0.077,0.733 0.22,1.896 0.317,2.583 0.224,1.596 0.229,9.191 0.006,10.833 -0.093,0.688 -0.234,1.85 -0.313,2.584 -0.406,3.759 -0.553,4.777 -0.866,6 -0.339,1.322 -0.571,2.37 -0.739,3.333 -0.048,0.275 -0.152,0.65 -0.23,0.833 -0.079,0.184 -0.181,0.521 -0.227,0.75 -0.132,0.653 -0.387,1.485 -0.841,2.75 -0.231,0.642 -0.422,1.299 -0.426,1.461 -0.004,0.162 -0.074,0.424 -0.155,0.583 -0.178,0.35 -0.348,0.765 -0.939,2.29 -0.249,0.641 -0.514,1.316 -0.59,1.5 -0.207,0.501 -1.649,3.595 -1.942,4.166 -0.141,0.275 -0.556,1.1 -0.923,1.834 -0.366,0.733 -0.827,1.558 -1.024,1.833 -0.197,0.275 -0.469,0.723 -0.604,0.996 -0.365,0.735 -3.627,5.583 -4.184,6.218 -0.264,0.301 -0.48,0.601 -0.48,0.667 -0.001,0.065 -0.207,0.344 -0.46,0.619 -0.252,0.275 -0.793,0.912 -1.202,1.417 -3.879,4.776 -8.942,9.447 -13.921,12.841 -0.733,0.5 -1.408,0.965 -1.5,1.034 -0.658,0.496 -1.939,1.291 -2.079,1.291 -0.094,0 -0.171,0.075 -0.171,0.167 0,0.092 -0.076,0.167 -0.17,0.167 -0.093,0 -0.45,0.176 -0.792,0.392 -1.656,1.044 -4.639,2.551 -7.705,3.892 -0.321,0.14 -0.839,0.368 -1.151,0.506 -1.547,0.682 -2.865,1.186 -3.371,1.288 -0.308,0.062 -0.894,0.265 -1.301,0.45 -0.406,0.185 -0.989,0.377 -1.295,0.426 -0.306,0.05 -0.597,0.155 -0.646,0.235 -0.049,0.079 -0.273,0.144 -0.498,0.144 -0.225,0 -0.539,0.066 -0.698,0.146 -0.159,0.08 -0.852,0.274 -1.54,0.431 -0.687,0.157 -1.475,0.352 -1.75,0.434 -1.235,0.367 -2.749,0.656 -3.435,0.656 -0.412,0 -0.819,0.068 -0.906,0.152 -0.087,0.084 -0.609,0.191 -1.159,0.237 -0.55,0.046 -1.487,0.16 -2.083,0.254 -2.917,0.458 -4.632,0.549 -9.083,0.483 -4.675,-0.07 -8.362,-0.341 -8.659,-0.636 -0.087,-0.086 -0.626,-0.157 -1.198,-0.157 -0.572,0 -1.08,-0.064 -1.128,-0.142 -0.048,-0.078 -0.597,-0.187 -1.218,-0.242 -0.622,-0.055 -2.331,-0.413 -3.797,-0.796 -1.467,-0.383 -2.892,-0.734 -3.167,-0.779 -0.275,-0.046 -0.575,-0.135 -0.667,-0.198 -0.091,-0.063 -0.635,-0.26 -1.208,-0.437 -0.573,-0.178 -1.042,-0.379 -1.042,-0.448 0,-0.068 -0.171,-0.125 -0.381,-0.125 -0.399,0 -2.039,-0.531 -2.23,-0.722 -0.061,-0.061 -0.209,-0.111 -0.329,-0.111 -0.119,0 -0.651,-0.197 -1.18,-0.437 -0.53,-0.24 -1.226,-0.549 -1.546,-0.686 -1.217,-0.521 -6.056,-2.946 -6.558,-3.287 -0.289,-0.196 -0.644,-0.401 -0.789,-0.457 -0.145,-0.055 -0.698,-0.389 -1.231,-0.742 -0.532,-0.352 -1.088,-0.714 -1.236,-0.804 -1.256,-0.758 -1.91,-1.205 -2.78,-1.9 -0.098,-0.078 -0.354,-0.237 -0.57,-0.352 -0.403,-0.216 -2.198,-1.629 -4.608,-3.628 -1.506,-1.249 -5.984,-5.694 -7.43,-7.374 -1.222,-1.42 -2.798,-3.444 -2.798,-3.593 0,-0.065 -0.135,-0.239 -0.3,-0.387 -0.165,-0.148 -0.557,-0.645 -0.87,-1.103 -0.314,-0.458 -0.693,-0.983 -0.843,-1.167 -0.15,-0.183 -0.415,-0.596 -0.588,-0.916 -0.174,-0.321 -0.361,-0.621 -0.416,-0.667 -0.216,-0.181 -2.43,-3.899 -3.126,-5.25 -0.283,-0.55 -0.626,-1.187 -0.761,-1.417 -0.136,-0.229 -0.373,-0.716 -0.527,-1.083 -0.154,-0.367 -0.603,-1.342 -0.996,-2.167 -0.394,-0.825 -0.767,-1.725 -0.83,-2 -0.062,-0.275 -0.292,-0.871 -0.511,-1.324 -0.22,-0.453 -0.399,-0.955 -0.399,-1.115 0,-0.16 -0.075,-0.337 -0.167,-0.394 -0.091,-0.057 -0.166,-0.25 -0.166,-0.429 0,-0.179 -0.066,-0.456 -0.147,-0.615 -0.388,-0.767 -1.107,-3.099 -1.409,-4.568 -0.107,-0.519 -0.251,-1.001 -0.319,-1.069 -0.069,-0.069 -0.125,-0.435 -0.125,-0.813 0,-0.379 -0.075,-0.764 -0.166,-0.855 -0.399,-0.399 -0.815,-3.145 -1.501,-9.901 -0.24,-2.362 -0.139,-11.735 0.139,-12.833 0.104,-0.413 0.261,-1.575 0.35,-2.584 0.228,-2.587 0.707,-5.27 1.012,-5.666 0.07,-0.092 0.171,-0.467 0.224,-0.834 0.258,-1.796 0.301,-1.916 0.723,-2.023 0.276,-0.069 0.56,0.005 0.857,0.224 0.492,0.36 10.864,7.635 11.528,8.085 0.72,0.488 2.816,1.957 6.728,4.714 2.081,1.467 4.737,3.324 5.903,4.127 1.166,0.804 2.757,1.914 3.536,2.468 7.45,5.295 9.259,6.503 9.58,6.399 0.185,-0.06 1.012,-0.213 1.837,-0.341 0.825,-0.128 1.875,-0.308 2.333,-0.401 1.036,-0.207 2.251,-0.425 4.083,-0.732 0.779,-0.13 1.829,-0.325 2.334,-0.433 0.504,-0.108 1.629,-0.306 2.5,-0.44 0.87,-0.134 1.958,-0.313 2.416,-0.398 1.785,-0.331 3.871,-0.676 4.667,-0.773 0.458,-0.056 0.908,-0.158 1,-0.228 0.092,-0.07 0.729,-0.181 1.417,-0.248 0.687,-0.066 1.325,-0.179 1.416,-0.25 0.092,-0.072 0.505,-0.172 0.917,-0.222 0.412,-0.05 1.125,-0.162 1.583,-0.249 0.961,-0.182 3.91,-0.692 4.71,-0.815 0.613,-0.095 0.811,-0.3 0.576,-0.596 -0.087,-0.111 -0.203,-0.539 -0.257,-0.951 -0.086,-0.656 -0.268,-1.755 -0.776,-4.667 -0.072,-0.412 -0.289,-1.687 -0.484,-2.833 -0.372,-2.195 -0.614,-3.481 -0.863,-4.583 -0.083,-0.367 -0.233,-1.229 -0.333,-1.917 -0.101,-0.687 -0.247,-1.588 -0.324,-2 -0.077,-0.413 -0.265,-1.5 -0.417,-2.417 -0.292,-1.755 -0.378,-2.247 -0.823,-4.666 -0.152,-0.825 -0.338,-1.913 -0.414,-2.417 -0.395,-2.615 -0.932,-5.161 -1.123,-5.327 -0.123,-0.107 -4.051,-2.865 -4.993,-3.506 -0.99,-0.674 -2.934,-2.019 -3.979,-2.753 -3.279,-2.302 -12.731,-8.937 -13.166,-9.241 -0.275,-0.193 -0.988,-0.691 -1.584,-1.109 -0.596,-0.417 -2.846,-1.987 -5,-3.489 -2.154,-1.502 -3.993,-2.795 -4.087,-2.874 -0.094,-0.079 -0.769,-0.55 -1.5,-1.047 -0.731,-0.497 -1.416,-0.986 -1.522,-1.085 -0.107,-0.1 -0.579,-0.429 -1.051,-0.731 -1.286,-0.826 -1.185,-1.023 1.434,-2.805 1.151,-0.783 3.39,-2.2 3.476,-2.2 0.041,0 0.694,-0.362 1.454,-0.805 1.285,-0.75 4.12,-2.176 5.463,-2.747 0.321,-0.137 0.958,-0.413 1.417,-0.615 1.867,-0.82 5.05,-1.999 5.398,-1.999 0.157,0 0.356,-0.064 0.443,-0.141 0.087,-0.077 0.609,-0.271 1.159,-0.43 0.55,-0.159 1.187,-0.35 1.416,-0.423 0.798,-0.257 2.889,-0.788 3.584,-0.91 0.275,-0.049 1.212,-0.244 2.083,-0.434 2.319,-0.506 5.985,-0.952 9.417,-1.146 2.701,-0.153 10.587,-0.039 10.833,0.157 m 0.167,74.116 c -3.656,1.861 -2.391,7.449 1.686,7.449 1.146,0 2.468,-0.684 3.147,-1.627 1.021,-1.419 0.536,-4.879 -0.75,-5.349 -0.138,-0.051 -0.475,-0.237 -0.75,-0.415 -0.631,-0.408 -2.579,-0.441 -3.333,-0.058"
       inkscape:connector-curvature="0"
       style="fill:#fbfbfb;fill-rule:evenodd;stroke:none" />
    <path
       id="path2"
       d="m 179.708,95.79 c 0.527,0.033 1.39,0.033 1.917,0 0.527,-0.033 0.096,-0.06 -0.958,-0.06 -1.055,0 -1.486,0.027 -0.959,0.06 m -2.003,45.377 c 0,0.32 0.035,0.452 0.077,0.291 0.041,-0.16 0.041,-0.423 0,-0.583 -0.042,-0.16 -0.077,-0.029 -0.077,0.292 M 110.872,154 c 0,0.321 0.034,0.452 0.076,0.292 0.042,-0.161 0.042,-0.423 0,-0.584 -0.042,-0.16 -0.076,-0.029 -0.076,0.292 m 140.009,5.25 c 0.001,0.458 0.034,0.626 0.072,0.373 0.038,-0.254 0.037,-0.629 -0.002,-0.834 -0.04,-0.205 -0.071,0.003 -0.07,0.461 m -140.836,1.083 c 0,0.413 0.033,0.582 0.073,0.375 0.039,-0.206 0.039,-0.543 0,-0.75 -0.04,-0.206 -0.073,-0.037 -0.073,0.375 M 181.372,162 c 0,0.321 0.034,0.452 0.076,0.292 0.042,-0.161 0.042,-0.423 0,-0.584 -0.042,-0.16 -0.076,-0.029 -0.076,0.292 m 70.007,4.5 c 0,0.412 0.032,0.581 0.072,0.375 0.04,-0.206 0.04,-0.544 0,-0.75 -0.04,-0.206 -0.072,-0.038 -0.072,0.375 m -141.34,6 c 0,0.321 0.034,0.452 0.076,0.292 0.042,-0.161 0.042,-0.423 0,-0.584 -0.042,-0.16 -0.076,-0.029 -0.076,0.292 m 140.84,1.167 c 0,0.412 0.032,0.581 0.072,0.375 0.04,-0.207 0.04,-0.544 0,-0.75 -0.04,-0.207 -0.072,-0.038 -0.072,0.375 m -58.973,2.708 -0.489,0.542 0.541,-0.49 c 0.505,-0.456 0.619,-0.594 0.49,-0.594 -0.029,0 -0.273,0.244 -0.542,0.542 m -81.031,2.542 c 0.002,0.366 0.036,0.497 0.076,0.289 0.04,-0.207 0.039,-0.507 -0.003,-0.666 -0.042,-0.16 -0.074,0.01 -0.073,0.377 m 121.698,35.458 -0.49,0.542 0.542,-0.49 c 0.505,-0.456 0.618,-0.594 0.49,-0.594 -0.029,0 -0.273,0.244 -0.542,0.542 m -1.833,2 -0.49,0.542 0.542,-0.49 c 0.505,-0.456 0.618,-0.594 0.489,-0.594 -0.029,0 -0.272,0.244 -0.541,0.542 m -2.5,2.333 -0.49,0.542 0.542,-0.49 c 0.505,-0.456 0.618,-0.593 0.489,-0.593 -0.029,0 -0.272,0.243 -0.541,0.541 m -49.522,18.583 c 1.082,0.029 2.807,0.029 3.833,0 1.026,-0.029 0.141,-0.053 -1.968,-0.053 -2.108,0 -2.948,0.024 -1.865,0.053"
       inkscape:connector-curvature="0"
       style="fill:#a1a1a1;fill-rule:evenodd;stroke:none" />
    <path
       id="path3"
       d="m 174.109,95.958 c -0.071,0.114 5.034,0.111 10.724,-0.005 1.238,-0.026 -0.651,-0.063 -4.198,-0.083 -3.547,-0.02 -6.484,0.02 -6.526,0.088 m 15.308,0.375 c 0.183,0.079 0.445,0.144 0.583,0.144 0.158,0 0.127,-0.053 -0.083,-0.144 -0.184,-0.078 -0.446,-0.143 -0.584,-0.143 -0.157,0 -0.126,0.053 0.084,0.143 m 6.566,1.217 c 0.078,0.077 0.395,0.115 0.704,0.083 0.549,-0.057 0.546,-0.06 -0.141,-0.141 -0.387,-0.046 -0.64,-0.02 -0.563,0.058 m -32.066,0.117 c -0.057,0.091 -0.343,0.177 -0.635,0.189 -0.433,0.019 -0.458,0.037 -0.132,0.098 0.22,0.042 0.557,-0.003 0.75,-0.1 0.192,-0.097 0.575,-0.204 0.85,-0.24 0.448,-0.057 0.436,-0.067 -0.115,-0.089 -0.339,-0.014 -0.662,0.05 -0.718,0.142 m 33.583,0.231 c 0,0.036 0.257,0.096 0.572,0.132 0.314,0.037 0.535,0.008 0.49,-0.065 -0.081,-0.13 -1.062,-0.192 -1.062,-0.067 m -37.667,0.943 c -0.182,0.123 -0.115,0.139 0.25,0.057 0.613,-0.137 0.746,-0.232 0.32,-0.229 -0.176,0.002 -0.432,0.079 -0.57,0.172 m -2.291,0.679 c -0.298,0.086 -0.542,0.193 -0.542,0.238 0,0.121 0.891,-0.111 1.075,-0.28 0.182,-0.166 0.188,-0.166 -0.533,0.042 m -2.167,0.819 c -0.558,0.224 -0.454,0.338 0.125,0.136 0.275,-0.096 0.5,-0.204 0.5,-0.241 0,-0.099 -0.203,-0.065 -0.625,0.105 m -6.671,2.938 c -0.301,0.148 -0.519,0.297 -0.486,0.33 0.071,0.071 1.115,-0.431 1.115,-0.536 0,-0.101 -0.022,-0.094 -0.629,0.206 m -1.479,0.722 c -0.196,0.079 -0.404,0.219 -0.461,0.311 -0.057,0.092 0.123,0.054 0.4,-0.084 0.276,-0.138 0.503,-0.282 0.503,-0.322 0,-0.085 0.008,-0.086 -0.442,0.095 M 214,104.175 c 0.578,0.392 0.907,0.506 0.5,0.173 -0.229,-0.187 -0.492,-0.341 -0.583,-0.342 -0.092,0 -0.055,0.075 0.083,0.169 m 3,1.742 c 0.311,0.229 0.606,0.416 0.657,0.416 0.158,-0.002 -0.897,-0.821 -1.064,-0.827 -0.087,-0.003 0.096,0.182 0.407,0.411 m -73.458,0.269 c -0.568,0.364 -0.752,0.608 -0.25,0.332 0.382,-0.21 0.981,-0.673 0.875,-0.677 -0.046,-10e-4 -0.327,0.154 -0.625,0.345 m 79.611,3.875 c 0.222,0.273 0.847,0.686 0.847,0.56 0,-0.032 -0.244,-0.237 -0.542,-0.455 -0.335,-0.245 -0.451,-0.285 -0.305,-0.105 m -82.986,0.318 c 0,0.032 0.243,0.237 0.541,0.455 0.336,0.245 0.452,0.285 0.306,0.105 -0.222,-0.273 -0.847,-0.686 -0.847,-0.56 m 2.166,1.514 c 0,0.042 0.383,0.351 0.851,0.687 0.468,0.336 0.802,0.532 0.742,0.434 -0.126,-0.202 -1.593,-1.236 -1.593,-1.121 m 85.75,2.274 c 0.545,0.55 1.027,1 1.073,1 0.046,0 -0.362,-0.45 -0.906,-1 -0.544,-0.55 -1.027,-1 -1.073,-1 -0.046,0 0.362,0.45 0.906,1 m -83.166,-0.422 c 0.503,0.441 1.083,0.819 1.083,0.706 0,-0.034 -0.356,-0.305 -0.792,-0.603 -0.599,-0.41 -0.67,-0.435 -0.291,-0.103 m 1.403,0.982 c 0.222,0.274 0.847,0.687 0.847,0.56 0,-0.032 -0.244,-0.236 -0.542,-0.454 -0.335,-0.246 -0.452,-0.286 -0.305,-0.106 m 85.93,3.606 c 0.821,0.825 1.531,1.5 1.576,1.5 0.046,0 -0.588,-0.675 -1.409,-1.5 -0.822,-0.825 -1.531,-1.5 -1.577,-1.5 -0.046,0 0.589,0.675 1.41,1.5 m -76.417,3.084 c 0.311,0.229 0.607,0.416 0.658,0.416 0.157,-0.002 -0.898,-0.821 -1.065,-0.827 -0.087,-0.003 0.097,0.182 0.407,0.411 m 0.987,0.644 c 0.222,0.273 0.847,0.686 0.847,0.56 0,-0.032 -0.244,-0.237 -0.542,-0.455 -0.335,-0.245 -0.452,-0.285 -0.305,-0.105 m 1.43,1.017 c 0.503,0.441 1.083,0.819 1.083,0.706 0,-0.033 -0.356,-0.305 -0.791,-0.602 -0.6,-0.41 -0.67,-0.435 -0.292,-0.104 m 78.25,0.307 c 0,0.029 0.244,0.273 0.542,0.542 l 0.541,0.49 -0.489,-0.542 c -0.456,-0.505 -0.594,-0.618 -0.594,-0.49 m -64.833,9.109 c 0.229,0.192 0.566,0.427 0.75,0.522 0.227,0.118 0.201,0.062 -0.084,-0.176 -0.229,-0.192 -0.566,-0.427 -0.75,-0.523 -0.227,-0.118 -0.201,-0.062 0.084,0.177 m 1.583,1.084 c 0.503,0.441 1.083,0.819 1.083,0.706 0,-0.033 -0.356,-0.305 -0.791,-0.602 -0.6,-0.41 -0.67,-0.435 -0.292,-0.104 m 1.403,0.983 c 0.222,0.273 0.847,0.686 0.847,0.56 0,-0.032 -0.244,-0.237 -0.542,-0.455 -0.335,-0.245 -0.451,-0.285 -0.305,-0.105 m 1.014,0.65 c 0,0.036 0.318,0.32 0.708,0.629 0.39,0.31 0.602,0.432 0.473,0.271 -0.244,-0.304 -1.181,-1.018 -1.181,-0.9 m 1.502,2.47 c 0.002,0.313 0.071,0.678 0.155,0.81 0.099,0.156 0.12,-0.02 0.058,-0.5 -0.117,-0.92 -0.216,-1.064 -0.213,-0.31 m 0.87,4.819 c 0,0.321 0.034,0.452 0.076,0.292 0.042,-0.161 0.042,-0.423 0,-0.584 -0.042,-0.16 -0.076,-0.029 -0.076,0.292 m 0.297,1.764 c 10e-4,0.267 0.074,0.598 0.162,0.736 0.108,0.17 0.127,0.037 0.057,-0.417 -0.126,-0.824 -0.222,-0.964 -0.219,-0.319 m 0.873,4.819 c 0.002,0.367 0.036,0.497 0.076,0.29 0.039,-0.207 0.038,-0.507 -0.004,-0.667 -0.042,-0.159 -0.074,0.011 -0.072,0.377 m 70.127,1.431 c 10e-4,0.313 0.071,0.678 0.155,0.811 0.099,0.156 0.119,-0.021 0.058,-0.5 -0.118,-0.921 -0.216,-1.065 -0.213,-0.311 m -133.503,-0.135 c 0,0.032 0.244,0.237 0.542,0.455 0.335,0.245 0.452,0.285 0.305,0.105 -0.222,-0.273 -0.847,-0.686 -0.847,-0.56 m 1.667,1.182 c 0,0.045 0.225,0.243 0.5,0.439 0.275,0.196 0.5,0.319 0.5,0.273 0,-0.046 -0.225,-0.244 -0.5,-0.44 -0.275,-0.195 -0.5,-0.318 -0.5,-0.272 m 132.195,0.272 c 0.008,0.433 0.271,1.145 0.277,0.75 0.002,-0.183 -0.06,-0.483 -0.139,-0.666 -0.087,-0.205 -0.141,-0.237 -0.138,-0.084 M 119,152.66 c 0.229,0.192 0.567,0.427 0.75,0.523 0.227,0.118 0.201,0.062 -0.083,-0.177 -0.229,-0.192 -0.567,-0.427 -0.75,-0.522 -0.228,-0.118 -0.201,-0.062 0.083,0.176 m 61.016,1.173 c -0.006,0.413 0.055,0.854 0.135,0.981 0.09,0.142 0.116,-0.082 0.067,-0.583 -0.11,-1.129 -0.19,-1.286 -0.202,-0.398 m 70.166,0.334 c -0.005,0.412 0.056,0.854 0.136,0.98 0.09,0.143 0.116,-0.081 0.067,-0.583 -0.11,-1.129 -0.19,-1.286 -0.203,-0.397 m -128.196,0.56 c 0.222,0.274 0.847,0.687 0.847,0.56 0,-0.032 -0.243,-0.236 -0.541,-0.454 -0.336,-0.246 -0.452,-0.286 -0.306,-0.106 m -11.215,0.196 c -0.058,0.149 -0.093,0.621 -0.08,1.049 0.024,0.761 0.027,0.757 0.138,-0.222 0.121,-1.068 0.108,-1.259 -0.058,-0.827 m 69.565,0.758 c 10e-4,0.221 0.076,0.515 0.166,0.652 0.116,0.176 0.132,0.077 0.057,-0.333 -0.132,-0.719 -0.227,-0.854 -0.223,-0.319 m -55.516,1.046 c 0.222,0.274 0.847,0.687 0.847,0.56 0,-0.032 -0.244,-0.236 -0.542,-0.454 -0.335,-0.246 -0.452,-0.286 -0.305,-0.106 m -14.433,1.773 c 0,0.596 0.03,0.84 0.067,0.542 0.037,-0.298 0.037,-0.786 0,-1.084 -0.037,-0.298 -0.067,-0.054 -0.067,0.542 m 70.492,0.167 c 0,0.412 0.032,0.581 0.072,0.375 0.04,-0.207 0.04,-0.544 0,-0.75 -0.04,-0.207 -0.072,-0.038 -0.072,0.375 m 0.29,1.764 c 0.002,0.267 0.074,0.598 0.162,0.736 0.109,0.17 0.127,0.037 0.057,-0.417 -0.126,-0.824 -0.222,-0.964 -0.219,-0.319 m 69.886,1.152 c 0,0.642 0.031,0.884 0.067,0.538 0.036,-0.346 0.035,-0.871 -0.002,-1.166 -0.037,-0.296 -0.066,-0.013 -0.065,0.628 m -117.388,1.296 c 0,0.032 0.243,0.237 0.541,0.455 0.336,0.245 0.452,0.285 0.306,0.105 -0.222,-0.273 -0.847,-0.686 -0.847,-0.56 m 117.557,1.871 c 0,0.733 0.03,1.013 0.065,0.621 0.035,-0.392 0.035,-0.992 -10e-4,-1.334 -0.036,-0.341 -0.065,-0.02 -0.064,0.713 m -141.155,1.75 c 0,1.604 0.025,2.26 0.055,1.458 0.031,-0.802 0.031,-2.114 0,-2.916 -0.03,-0.802 -0.055,-0.146 -0.055,1.458 m 71.93,-1.34 c 0.059,0.459 0.15,0.877 0.201,0.929 0.137,0.137 -0.052,-1.482 -0.191,-1.635 -0.064,-0.071 -0.069,0.247 -0.01,0.706 m 69.227,3.09 c -0.001,0.825 0.028,1.184 0.062,0.797 0.035,-0.387 0.036,-1.062 10e-4,-1.5 -0.034,-0.438 -0.063,-0.122 -0.063,0.703 m -72.434,1.034 c 0.206,0.04 0.543,0.04 0.75,0 0.206,-0.039 0.037,-0.072 -0.375,-0.072 -0.413,0 -0.582,0.033 -0.375,0.072 m -4.125,0.716 -0.584,0.123 0.532,0.022 c 0.293,0.012 0.578,-0.053 0.635,-0.145 0.057,-0.092 0.08,-0.157 0.052,-0.145 -0.029,0.012 -0.315,0.077 -0.635,0.145 m 16.75,0.107 c 0.848,0.753 1.161,0.973 0.834,0.586 -0.182,-0.215 -0.481,-0.468 -0.666,-0.562 -0.184,-0.095 -0.26,-0.105 -0.168,-0.024 m -19.476,0.354 c -0.044,0.071 0.214,0.1 0.573,0.066 0.359,-0.034 0.653,-0.092 0.653,-0.128 0,-0.124 -1.147,-0.066 -1.226,0.062 m 79.091,0.817 c -0.018,0.565 -0.075,1.165 -0.128,1.333 -0.089,0.285 -0.083,0.286 0.091,0.015 0.107,-0.166 0.162,-0.741 0.128,-1.334 l -0.059,-1.042 -0.032,1.028 m -83.49,0.004 c 0.16,0.041 0.423,0.041 0.583,0 0.16,-0.042 0.029,-0.077 -0.292,-0.077 -0.321,0 -0.452,0.035 -0.291,0.077 m -4.75,0.836 c 0.206,0.039 0.543,0.039 0.75,0 0.206,-0.04 0.037,-0.073 -0.375,-0.073 -0.413,0 -0.582,0.033 -0.375,0.073 m 22.139,0.729 c -0.063,0.472 -0.081,0.892 -0.04,0.933 0.041,0.041 0.128,-0.31 0.192,-0.78 0.065,-0.47 0.083,-0.89 0.04,-0.933 -0.043,-0.043 -0.13,0.308 -0.192,0.78 m -37.538,-0.385 c 0.132,0.213 1.107,0.935 1.107,0.819 0,-0.041 -0.275,-0.285 -0.612,-0.541 -0.336,-0.257 -0.559,-0.382 -0.495,-0.278 m 10.734,0.489 c 0.207,0.04 0.507,0.039 0.667,-0.003 0.159,-0.042 -0.011,-0.074 -0.377,-0.073 -0.367,0.002 -0.497,0.036 -0.29,0.076 m -47.795,1.348 0.081,1.284 0.052,-1.15 c 0.028,-0.632 -0.009,-1.21 -0.082,-1.284 -0.073,-0.074 -0.096,0.444 -0.051,1.15 m 45.96,-1.015 c 0.206,0.04 0.543,0.04 0.75,0 0.206,-0.039 0.037,-0.072 -0.375,-0.072 -0.413,0 -0.582,0.033 -0.375,0.072 m -5.273,0.867 c -0.141,0.09 0.086,0.112 0.584,0.059 0.447,-0.048 0.845,-0.115 0.883,-0.149 0.151,-0.133 -1.251,-0.047 -1.467,0.09 m 34.02,0.349 c 0,0.321 0.034,0.452 0.076,0.292 0.042,-0.161 0.042,-0.423 0,-0.584 -0.042,-0.16 -0.076,-0.029 -0.076,0.292 m -74.357,2.417 c -0.005,0.458 0.053,0.933 0.131,1.055 0.082,0.131 0.11,-0.146 0.067,-0.666 -0.101,-1.221 -0.185,-1.387 -0.198,-0.389 m 80.857,-0.175 c -0.54,0.298 -0.626,0.416 -0.228,0.312 0.19,-0.049 0.431,-0.194 0.537,-0.322 0.225,-0.271 0.196,-0.27 -0.309,0.01 m -2.372,0.925 -0.584,0.122 0.532,0.022 c 0.293,0.012 0.578,-0.053 0.635,-0.144 0.057,-0.092 0.08,-0.157 0.052,-0.145 -0.029,0.012 -0.315,0.077 -0.635,0.145 m 61.067,0.232 c -0.049,0.128 -0.064,0.522 -0.033,0.875 0.053,0.595 0.063,0.578 0.136,-0.232 0.081,-0.894 0.055,-1.056 -0.103,-0.643 m -139.132,1.851 c 0.137,0.613 0.232,0.746 0.229,0.319 -0.002,-0.175 -0.079,-0.432 -0.172,-0.569 -0.123,-0.183 -0.139,-0.115 -0.057,0.25 m 138.669,0.771 c -0.059,0.293 -0.076,0.563 -0.038,0.601 0.038,0.038 0.12,-0.167 0.184,-0.455 0.063,-0.288 0.08,-0.559 0.038,-0.601 -0.043,-0.043 -0.126,0.162 -0.184,0.455 m -0.348,1.187 c -0.13,0.406 -0.188,1.457 -0.073,1.334 0.064,-0.069 0.144,-0.444 0.179,-0.834 0.063,-0.704 0.021,-0.898 -0.106,-0.5 m -0.436,2.167 c -0.05,0.358 -0.024,0.562 0.06,0.478 0.08,-0.08 0.119,-0.361 0.086,-0.624 -0.055,-0.441 -0.067,-0.429 -0.146,0.146 m -136.654,1.198 c 0,0.224 0.062,0.445 0.137,0.492 0.075,0.046 0.104,-0.137 0.064,-0.407 -0.087,-0.596 -0.201,-0.643 -0.201,-0.085 m 5.6,14.077 c 0.142,0.284 0.283,0.517 0.314,0.517 0.135,0 -0.139,-0.675 -0.344,-0.845 -0.172,-0.143 -0.165,-0.063 0.03,0.328 m 124.339,1.725 -0.3,0.542 0.344,-0.417 c 0.304,-0.37 0.44,-0.667 0.303,-0.667 -0.026,0 -0.182,0.244 -0.347,0.542 M 120,202.91 c 0,0.066 0.15,0.311 0.333,0.545 0.184,0.233 0.334,0.369 0.334,0.302 0,-0.067 -0.15,-0.312 -0.334,-0.545 C 120.15,202.979 120,202.843 120,202.91 m 117.968,4.715 c -0.294,0.342 -0.514,0.708 -0.426,0.708 0.034,0 0.228,-0.225 0.432,-0.5 0.401,-0.543 0.398,-0.678 -0.006,-0.208 m -113.053,2.376 c 0.791,0.923 0.802,0.933 0.621,0.582 -0.095,-0.183 -0.385,-0.52 -0.646,-0.749 l -0.473,-0.416 0.498,0.583 m 105.509,6.388 c -1.646,1.665 -2.321,2.415 -1.5,1.666 0.821,-0.749 1.868,-1.762 2.327,-2.25 2.062,-2.195 2.314,-2.471 2.242,-2.458 -0.042,0.008 -1.423,1.377 -3.069,3.042 m -101.598,-1.847 c 0.691,0.736 0.841,0.868 0.841,0.743 0,-0.027 -0.357,-0.383 -0.792,-0.792 l -0.792,-0.743 0.743,0.792 m 1.424,1.625 c 0.358,0.366 0.688,0.666 0.734,0.666 0.046,0 -0.209,-0.3 -0.567,-0.666 -0.358,-0.367 -0.689,-0.667 -0.735,-0.667 -0.045,0 0.21,0.3 0.568,0.667 m 2.333,2.166 c 0.358,0.367 0.689,0.667 0.735,0.667 0.045,0 -0.21,-0.3 -0.568,-0.667 -0.358,-0.366 -0.688,-0.666 -0.734,-0.666 -0.046,0 0.209,0.3 0.567,0.666 m 1.75,1.584 c 0.311,0.32 0.603,0.583 0.649,0.583 0.046,0 -0.171,-0.263 -0.482,-0.583 -0.311,-0.321 -0.603,-0.584 -0.649,-0.584 -0.046,0 0.171,0.263 0.482,0.584 m 87.551,3.845 -0.467,0.429 0.541,-0.377 c 0.298,-0.207 0.542,-0.4 0.542,-0.429 0,-0.131 -0.184,-0.018 -0.616,0.377 m -1.615,1.07 c -0.792,0.6 -0.959,0.771 -0.519,0.532 0.382,-0.207 1.375,-1.018 1.25,-1.02 -0.046,-0.001 -0.375,0.219 -0.731,0.488 m -2.186,1.439 c -0.299,0.255 -0.361,0.356 -0.153,0.253 0.306,-0.152 0.879,-0.7 0.715,-0.685 -0.034,0.004 -0.287,0.198 -0.562,0.432 m -72.538,1.562 c 0.234,0.184 0.479,0.334 0.545,0.334 0.067,0 -0.069,-0.15 -0.302,-0.334 -0.233,-0.183 -0.478,-0.333 -0.545,-0.333 -0.067,0 0.069,0.15 0.302,0.333 m 10.622,4.972 c 0.137,0.085 0.437,0.205 0.666,0.266 0.29,0.078 0.341,0.064 0.167,-0.043 -0.138,-0.085 -0.437,-0.204 -0.667,-0.266 -0.289,-0.077 -0.34,-0.064 -0.166,0.043 m 2.586,0.866 c 0.041,0.067 0.262,0.158 0.489,0.202 0.228,0.043 0.38,0.024 0.339,-0.044 -0.042,-0.067 -0.262,-0.158 -0.49,-0.202 -0.228,-0.043 -0.38,-0.024 -0.338,0.044 m 2.723,0.871 c 0.084,0.084 0.33,0.125 0.546,0.091 0.334,-0.053 0.311,-0.076 -0.152,-0.153 -0.331,-0.055 -0.487,-0.03 -0.394,0.062 m 37.774,-0.042 -0.5,0.127 0.448,0.02 c 0.247,0.011 0.495,-0.055 0.552,-0.147 0.057,-0.092 0.08,-0.158 0.052,-0.147 -0.029,0.011 -0.277,0.077 -0.552,0.147 m -36.417,0.398 c 0,0.036 0.258,0.096 0.572,0.132 0.314,0.037 0.535,0.008 0.49,-0.065 -0.081,-0.13 -1.062,-0.192 -1.062,-0.067 m 34.602,0.072 c -0.046,0.075 0.137,0.104 0.407,0.064 0.27,-0.039 0.491,-0.101 0.491,-0.136 0,-0.127 -0.815,-0.062 -0.898,0.072 M 166,235.669 c 0.137,0.088 0.469,0.16 0.736,0.162 0.645,0.003 0.505,-0.093 -0.319,-0.219 -0.454,-0.07 -0.587,-0.052 -0.417,0.057 m 27.938,0.13 c -0.045,0.072 0.176,0.101 0.49,0.065 0.315,-0.037 0.572,-0.096 0.572,-0.132 0,-0.126 -0.981,-0.064 -1.062,0.067 m -22.619,0.753 c 0.075,0.076 0.428,0.112 0.784,0.081 l 0.647,-0.057 -0.784,-0.08 c -0.431,-0.044 -0.722,-0.019 -0.647,0.056 m 17.764,-0.052 -0.833,0.114 0.782,0.026 c 0.43,0.015 0.828,-0.048 0.885,-0.14 0.056,-0.092 0.079,-0.155 0.051,-0.14 -0.028,0.014 -0.426,0.077 -0.885,0.14 m -14.122,0.454 c 0.3,0.037 0.75,0.036 1,-0.002 0.251,-0.038 0.006,-0.068 -0.544,-0.067 -0.55,0.001 -0.755,0.032 -0.456,0.069 m 10.334,0 c 0.299,0.037 0.749,0.036 1,-0.002 0.25,-0.038 0.005,-0.068 -0.545,-0.067 -0.55,0.001 -0.755,0.032 -0.455,0.069"
       inkscape:connector-curvature="0"
       style="fill:#747474;fill-rule:evenodd;stroke:none" />
    <path
       id="path4"
       d="m 110.042,163.083 c 0.002,0.367 0.036,0.497 0.076,0.29 0.04,-0.207 0.038,-0.507 -0.003,-0.667 -0.042,-0.159 -0.075,0.011 -0.073,0.377 m 83.006,10.5 c 0.001,0.459 0.033,0.626 0.072,0.373 0.038,-0.253 0.037,-0.628 -0.003,-0.833 -0.039,-0.205 -0.071,0.002 -0.069,0.46"
       inkscape:connector-curvature="0"
       style="fill:#7c7c7c;fill-rule:evenodd;stroke:none" />
    <path
       id="path5"
       d="m 170.127,96.451 c 0.207,0.04 0.507,0.039 0.667,-0.003 0.159,-0.042 -0.011,-0.074 -0.377,-0.073 -0.367,0.002 -0.497,0.036 -0.29,0.076 m 20.331,0 c 0.207,0.04 0.544,0.04 0.75,0 0.207,-0.04 0.038,-0.072 -0.375,-0.072 -0.412,0 -0.581,0.032 -0.375,0.072 m 38.209,18.101 c 0,0.029 0.243,0.273 0.541,0.542 l 0.542,0.489 -0.49,-0.541 c -0.456,-0.505 -0.593,-0.619 -0.593,-0.49 m 21.872,41.948 c 0,0.321 0.034,0.452 0.076,0.292 0.042,-0.161 0.042,-0.423 0,-0.584 -0.042,-0.16 -0.076,-0.029 -0.076,0.292 m -140.491,5.25 c 0.001,0.458 0.033,0.626 0.072,0.373 0.038,-0.254 0.037,-0.629 -0.003,-0.834 -0.039,-0.205 -0.071,0.003 -0.069,0.461 m 0.004,9.333 c 10e-4,0.55 0.032,0.755 0.069,0.456 0.037,-0.3 0.036,-0.75 -0.002,-1 -0.038,-0.251 -0.068,-0.006 -0.067,0.544 m 74.987,2.417 c 0,0.321 0.034,0.452 0.076,0.292 0.042,-0.161 0.042,-0.423 0,-0.584 -0.042,-0.16 -0.076,-0.029 -0.076,0.292 m 65.5,2.833 c 0,0.321 0.034,0.452 0.076,0.292 0.042,-0.16 0.042,-0.423 0,-0.583 -0.042,-0.161 -0.076,-0.03 -0.076,0.291 m -121.622,38.5 c 0.358,0.367 0.688,0.667 0.734,0.667 0.046,0 -0.21,-0.3 -0.568,-0.667 -0.358,-0.366 -0.688,-0.666 -0.734,-0.666 -0.046,0 0.21,0.3 0.568,0.666 m 39.043,21.285 c 0.208,0.04 0.508,0.038 0.667,-0.003 0.159,-0.042 -0.01,-0.075 -0.377,-0.073 -0.367,0.002 -0.497,0.036 -0.29,0.076 m 24.667,0 c 0.207,0.04 0.507,0.038 0.667,-0.003 0.159,-0.042 -0.011,-0.075 -0.377,-0.073 -0.367,0.002 -0.497,0.036 -0.29,0.076"
       inkscape:connector-curvature="0"
       style="fill:#848484;fill-rule:evenodd;stroke:none" />
    <path
       id="path6"
       d="m 177.461,95.787 c 0.3,0.038 0.75,0.037 1,-0.001 0.251,-0.038 0.006,-0.069 -0.544,-0.068 -0.55,10e-4 -0.755,0.032 -0.456,0.069 m 5.497,0 c 0.298,0.037 0.786,0.037 1.084,0 0.298,-0.037 0.054,-0.067 -0.542,-0.067 -0.596,0 -0.84,0.03 -0.542,0.067 m -10.837,0.333 c 0.296,0.037 0.821,0.038 1.167,0.002 0.346,-0.036 0.104,-0.067 -0.538,-0.067 -0.642,-0.001 -0.925,0.028 -0.629,0.065 m 15.84,10e-4 c 0.3,0.037 0.75,0.036 1,-0.002 0.251,-0.038 0.006,-0.068 -0.544,-0.067 -0.55,10e-4 -0.755,0.032 -0.456,0.069 M 250.872,158 c 0,0.321 0.034,0.452 0.076,0.292 0.042,-0.161 0.042,-0.423 0,-0.584 -0.042,-0.16 -0.076,-0.029 -0.076,0.292 m 0.517,6.667 c 0,0.687 0.03,0.968 0.066,0.625 0.036,-0.344 0.036,-0.907 0,-1.25 -0.036,-0.344 -0.066,-0.063 -0.066,0.625 m 10e-4,3.75 c 0.001,0.733 0.03,1.012 0.066,0.62 0.035,-0.392 0.034,-0.992 -0.002,-1.333 -0.035,-0.341 -0.064,-0.021 -0.064,0.713 m -62.927,1.205 c 0.392,0.035 0.992,0.035 1.333,-0.001 0.341,-0.036 0.021,-0.064 -0.713,-0.064 -0.733,0.001 -1.012,0.03 -0.62,0.065 m 62.409,5.211 c 0,0.321 0.034,0.452 0.076,0.292 0.042,-0.16 0.042,-0.423 0,-0.583 -0.042,-0.161 -0.076,-0.03 -0.076,0.291 m -81.164,61.62 c 0.252,0.038 0.665,0.038 0.917,0 0.252,-0.038 0.046,-0.07 -0.458,-0.07 -0.505,0 -0.711,0.032 -0.459,0.07 m 21.003,0 c 0.253,0.038 0.628,0.037 0.833,-0.002 0.205,-0.04 -0.002,-0.071 -0.461,-0.07 -0.458,0.001 -0.626,0.034 -0.372,0.072"
       inkscape:connector-curvature="0"
       style="fill:#bcbcbc;fill-rule:evenodd;stroke:none" />
    <path
       id="path7"
       d="m 110.542,155.917 c 0.002,0.366 0.036,0.497 0.076,0.289 0.04,-0.207 0.038,-0.507 -0.003,-0.666 -0.042,-0.16 -0.075,0.01 -0.073,0.377 m -0.64,10.583 c 0,1.604 0.025,2.26 0.055,1.458 0.031,-0.802 0.031,-2.114 0,-2.916 -0.03,-0.802 -0.055,-0.146 -0.055,1.458 m 0.643,10.5 c 0,0.412 0.033,0.581 0.073,0.375 0.039,-0.206 0.039,-0.544 0,-0.75 -0.04,-0.206 -0.073,-0.037 -0.073,0.375"
       inkscape:connector-curvature="0"
       style="fill:#c4c4c4;fill-rule:evenodd;stroke:none" />
    <path
       id="path8"
       d="m 179.632,95.624 c 0.576,0.032 1.476,0.032 2,-10e-4 0.523,-0.033 0.051,-0.06 -1.049,-0.059 -1.1,0 -1.528,0.027 -0.951,0.06 m -5.007,0.163 c 0.298,0.037 0.785,0.037 1.083,0 0.298,-0.037 0.054,-0.067 -0.541,-0.067 -0.596,0 -0.84,0.03 -0.542,0.067 m 10.83,0 c 0.295,0.037 0.82,0.037 1.166,10e-4 0.346,-0.036 0.104,-0.066 -0.538,-0.067 -0.641,0 -0.924,0.029 -0.628,0.066 m -21.247,1.661 c 0.161,0.042 0.423,0.042 0.584,0 0.16,-0.042 0.029,-0.076 -0.292,-0.076 -0.321,0 -0.452,0.034 -0.292,0.076 m 32.167,0 c 0.16,0.042 0.423,0.042 0.583,0 0.161,-0.042 0.029,-0.076 -0.291,-0.076 -0.321,0 -0.452,0.034 -0.292,0.076 m -57.431,11.663 c -0.15,0.151 -0.141,0.684 0.014,0.78 0.069,0.042 0.125,-0.141 0.125,-0.407 0,-0.266 -0.006,-0.484 -0.014,-0.484 -0.007,0 -0.063,0.05 -0.125,0.111 m 87.049,2.931 c 0.691,0.736 0.84,0.868 0.84,0.743 0,-0.027 -0.356,-0.383 -0.791,-0.792 l -0.792,-0.743 0.743,0.792 m 6.09,5.791 c 0.545,0.55 1.027,1 1.073,1 0.046,0 -0.362,-0.45 -0.906,-1 -0.544,-0.55 -1.027,-1 -1.073,-1 -0.046,0 0.362,0.45 0.906,1 M 249.5,150.49 c 0,0.27 0.059,0.527 0.132,0.572 0.072,0.045 0.102,-0.176 0.065,-0.49 -0.082,-0.701 -0.197,-0.748 -0.197,-0.082 m 0.879,3.677 c 0,0.412 0.032,0.581 0.072,0.375 0.04,-0.207 0.04,-0.544 0,-0.75 -0.04,-0.207 -0.072,-0.038 -0.072,0.375 m -70.507,0 c 0,0.32 0.034,0.452 0.076,0.291 0.042,-0.16 0.042,-0.423 0,-0.583 -0.042,-0.16 -0.076,-0.029 -0.076,0.292 m -69.983,8.333 c 0,0.688 0.03,0.969 0.066,0.625 0.036,-0.344 0.036,-0.906 0,-1.25 -0.036,-0.344 -0.066,-0.062 -0.066,0.625 m 141.483,-0.167 c 0,0.321 0.034,0.452 0.076,0.292 0.042,-0.16 0.042,-0.423 0,-0.583 -0.042,-0.161 -0.076,-0.03 -0.076,0.291 M 179,169 c -0.57,0.12 -0.572,0.123 -0.083,0.133 0.275,0.006 0.65,-0.054 0.833,-0.133 0.401,-0.172 0.068,-0.172 -0.75,0 m -69.115,1.25 c 10e-4,0.55 0.032,0.755 0.069,0.455 0.037,-0.299 0.036,-0.749 -0.002,-1 -0.038,-0.25 -0.068,-0.005 -0.067,0.545 m 141.487,0.25 c 0,0.321 0.034,0.452 0.076,0.292 0.042,-0.161 0.042,-0.423 0,-0.584 -0.042,-0.16 -0.076,-0.029 -0.076,0.292 m -79.603,-0.197 c -0.047,0.075 0.136,0.104 0.406,0.065 0.271,-0.04 0.492,-0.101 0.492,-0.137 0,-0.127 -0.816,-0.061 -0.898,0.072 m 14.471,0.405 -0.49,0.542 0.542,-0.49 c 0.505,-0.456 0.618,-0.593 0.489,-0.593 -0.029,0 -0.272,0.243 -0.541,0.541 m -23.613,1.243 c 0.207,0.04 0.507,0.039 0.667,-0.003 0.159,-0.042 -0.011,-0.074 -0.377,-0.073 -0.367,0.002 -0.497,0.036 -0.29,0.076 m 22.597,1.466 c 0,0.733 0.03,1.012 0.065,0.62 0.035,-0.392 0.035,-0.992 -10e-4,-1.333 -0.036,-0.341 -0.065,-0.021 -0.064,0.713 m 7.608,0.117 c -0.045,0.706 -0.022,1.224 0.051,1.15 0.073,-0.073 0.11,-0.651 0.082,-1.284 l -0.052,-1.15 -0.081,1.284 m -34.499,-0.867 c -0.576,0.121 -0.577,0.123 -0.083,0.142 0.275,0.011 0.612,-0.053 0.75,-0.142 0.278,-0.18 0.185,-0.18 -0.667,0 m -7.125,1.281 c 0.161,0.042 0.423,0.042 0.584,0 0.16,-0.042 0.029,-0.076 -0.292,-0.076 -0.321,0 -0.452,0.034 -0.292,0.076 m 99.192,4.119 c -0.05,0.129 -0.064,0.485 -0.032,0.792 0.051,0.489 0.068,0.46 0.138,-0.234 0.082,-0.812 0.052,-0.969 -0.106,-0.558 m -0.834,3.836 c -0.05,0.129 -0.064,0.448 -0.031,0.708 0.049,0.385 0.075,0.342 0.142,-0.236 0.084,-0.729 0.047,-0.886 -0.111,-0.472 M 127,212.885 c 0,0.029 0.244,0.273 0.542,0.542 l 0.541,0.49 -0.489,-0.542 C 127.138,212.87 127,212.757 127,212.885 m 105.74,1.49 -0.49,0.542 0.542,-0.49 c 0.505,-0.456 0.618,-0.594 0.489,-0.594 -0.029,0 -0.272,0.244 -0.541,0.542 M 128,214.052 c 0,0.029 0.244,0.273 0.542,0.542 l 0.541,0.489 -0.489,-0.541 C 128.138,214.037 128,213.923 128,214.052 m 3.833,3.833 c 0,0.029 0.244,0.273 0.542,0.542 l 0.542,0.49 -0.49,-0.542 c -0.456,-0.505 -0.594,-0.618 -0.594,-0.49 m 96.658,0.74 -0.574,0.625 0.625,-0.574 c 0.581,-0.535 0.701,-0.676 0.574,-0.676 -0.028,0 -0.309,0.281 -0.625,0.625 m -1.585,1.417 -0.489,0.541 0.541,-0.489 c 0.505,-0.456 0.619,-0.594 0.49,-0.594 -0.029,0 -0.273,0.244 -0.542,0.542 m -27.489,14.625 -0.5,0.127 0.448,0.02 c 0.247,0.01 0.495,-0.056 0.552,-0.147 0.056,-0.092 0.079,-0.158 0.051,-0.147 -0.028,0.011 -0.276,0.077 -0.551,0.147 m -37.917,0.064 c 0,0.036 0.221,0.097 0.491,0.137 0.27,0.039 0.453,0.01 0.407,-0.065 -0.083,-0.133 -0.898,-0.199 -0.898,-0.072 m 13.583,2.436 c 0.275,0.07 0.725,0.127 1,0.127 0.421,10e-4 0.394,-0.021 -0.166,-0.137 -0.845,-0.175 -1.527,-0.167 -0.834,0.01 m 10.084,0 c -0.443,0.093 -0.483,0.125 -0.167,0.135 0.229,0.007 0.717,-0.05 1.083,-0.126 0.556,-0.115 0.584,-0.137 0.167,-0.135 -0.275,0.002 -0.763,0.058 -1.083,0.126"
       inkscape:connector-curvature="0"
       style="fill:#d0d0d0;fill-rule:evenodd;stroke:none" />
    <circle
       id="path911"
       style="fill:#000000;stroke:none"
       cx="186.26738"
       cy="102.10439"
       r="1.5" />
  </g>
  <ellipse
     style="fill:#000000;fill-opacity:0;stroke:#000000;stroke-width:6.7683301;stroke-miterlimit:4;stroke-dasharray:none;stroke-opacity:1"
     id="path28"
     cx="64.524933"
     cy="63.343899"
     rx="47.810127"
     ry="47.644218" />
</svg>
