<?xml version="1.0" encoding="UTF-8"?>
<svg xmlns="http://www.w3.org/2000/svg" xmlns:xlink="http://www.w3.org/1999/xlink" width="128px" height="128px" viewBox="0 0 128 128" version="1.1">
<defs>
<linearGradient id="linear0" gradientUnits="userSpaceOnUse" x1="88.595886" y1="-449.394012" x2="536.595886" y2="-449.394012" gradientTransform="matrix(0.196428,0,0,0.335526,2.59729,268.783508)">
<stop offset="0" style="stop-color:rgb(75.294119%,74.901962%,73.725492%);stop-opacity:1;"/>
<stop offset="0.0500001" style="stop-color:rgb(87.058824%,86.666667%,85.490197%);stop-opacity:1;"/>
<stop offset="0.099807" style="stop-color:rgb(75.294119%,74.901962%,73.725492%);stop-opacity:1;"/>
<stop offset="0.900001" style="stop-color:rgb(75.294119%,74.901962%,73.725492%);stop-opacity:1;"/>
<stop offset="0.950001" style="stop-color:rgb(87.058824%,86.666667%,85.490197%);stop-opacity:1;"/>
<stop offset="1" style="stop-color:rgb(75.294119%,74.901962%,73.725492%);stop-opacity:1;"/>
</linearGradient>
<linearGradient id="linear1" gradientUnits="userSpaceOnUse" x1="88.595886" y1="-449.394012" x2="536.595886" y2="-449.394012" gradientTransform="matrix(0.196428,0,0,0.335526,2.59729,268.783508)">
<stop offset="0" style="stop-color:rgb(75.294119%,74.901962%,73.725492%);stop-opacity:1;"/>
<stop offset="0.0500001" style="stop-color:rgb(96.470588%,96.078432%,95.686275%);stop-opacity:1;"/>
<stop offset="0.099807" style="stop-color:rgb(87.058824%,86.666667%,85.490197%);stop-opacity:1;"/>
<stop offset="0.900001" style="stop-color:rgb(87.058824%,86.666667%,85.490197%);stop-opacity:1;"/>
<stop offset="0.950001" style="stop-color:rgb(96.470588%,96.078432%,95.686275%);stop-opacity:1;"/>
<stop offset="1" style="stop-color:rgb(75.294119%,74.901962%,73.725492%);stop-opacity:1;"/>
</linearGradient>
<radialGradient id="radial0" gradientUnits="userSpaceOnUse" cx="-239.48822" cy="-51.803455" fx="-239.48822" fy="-51.803455" r="11.785111" gradientTransform="matrix(-0.848528,0.000000000000000094,0,0.848528,-99.212532,136.027758)">
<stop offset="0" style="stop-color:rgb(97.647059%,73.333335%,90.980393%);stop-opacity:1;"/>
<stop offset="1" style="stop-color:rgb(94.901961%,41.960785%,61.960787%);stop-opacity:1;"/>
</radialGradient>
<linearGradient id="linear2" gradientUnits="userSpaceOnUse" x1="128.817169" y1="-97.698288" x2="158.518021" y2="-127.399147" gradientTransform="matrix(-0.183993,0.367985,0.183993,0.367985,156.781936,18.778465)">
<stop offset="0" style="stop-color:rgb(81.568629%,73.333335%,55.686277%);stop-opacity:1;"/>
<stop offset="1" style="stop-color:rgb(100%,100%,100%);stop-opacity:1;"/>
</linearGradient>
<linearGradient id="linear3" gradientUnits="userSpaceOnUse" x1="-253.630356" y1="-64.517502" x2="-230.060135" y2="-64.517502" gradientTransform="matrix(-0.848528,0.000000000000000094,0,1,-99.212532,144.588562)">
<stop offset="0" style="stop-color:rgb(60.392159%,60.000002%,58.823532%);stop-opacity:1;"/>
<stop offset="0.5" style="stop-color:rgb(87.058824%,86.666667%,85.490197%);stop-opacity:1;"/>
<stop offset="1" style="stop-color:rgb(75.294119%,74.901962%,73.725492%);stop-opacity:1;"/>
</linearGradient>
<linearGradient id="linear4" gradientUnits="userSpaceOnUse" x1="32" y1="190" x2="32" y2="174" >
<stop offset="0" style="stop-color:rgb(23.921569%,21.960784%,27.450982%);stop-opacity:1;"/>
<stop offset="0.625" style="stop-color:rgb(54.509807%,52.941179%,58.039218%);stop-opacity:1;"/>
<stop offset="1" style="stop-color:rgb(36.862746%,36.078432%,39.215687%);stop-opacity:1;"/>
</linearGradient>
<linearGradient id="linear5" gradientUnits="userSpaceOnUse" x1="32" y1="190" x2="32" y2="174" >
<stop offset="0" style="stop-color:rgb(23.921569%,21.960784%,27.450982%);stop-opacity:1;"/>
<stop offset="0.625" style="stop-color:rgb(54.509807%,52.941179%,58.039218%);stop-opacity:1;"/>
<stop offset="1" style="stop-color:rgb(36.862746%,36.078432%,39.215687%);stop-opacity:1;"/>
</linearGradient>
<linearGradient id="linear6" gradientUnits="userSpaceOnUse" x1="32" y1="190" x2="32" y2="174" >
<stop offset="0" style="stop-color:rgb(23.921569%,21.960784%,27.450982%);stop-opacity:1;"/>
<stop offset="0.625" style="stop-color:rgb(54.509807%,52.941179%,58.039218%);stop-opacity:1;"/>
<stop offset="1" style="stop-color:rgb(36.862746%,36.078432%,39.215687%);stop-opacity:1;"/>
</linearGradient>
<linearGradient id="linear7" gradientUnits="userSpaceOnUse" x1="32" y1="190" x2="32" y2="174" >
<stop offset="0" style="stop-color:rgb(23.921569%,21.960784%,27.450982%);stop-opacity:1;"/>
<stop offset="0.625" style="stop-color:rgb(54.509807%,52.941179%,58.039218%);stop-opacity:1;"/>
<stop offset="1" style="stop-color:rgb(36.862746%,36.078432%,39.215687%);stop-opacity:1;"/>
</linearGradient>
<linearGradient id="linear8" gradientUnits="userSpaceOnUse" x1="32" y1="190" x2="32" y2="174" >
<stop offset="0" style="stop-color:rgb(23.921569%,21.960784%,27.450982%);stop-opacity:1;"/>
<stop offset="0.625" style="stop-color:rgb(54.509807%,52.941179%,58.039218%);stop-opacity:1;"/>
<stop offset="1" style="stop-color:rgb(36.862746%,36.078432%,39.215687%);stop-opacity:1;"/>
</linearGradient>
</defs>
<g id="surface1863">
<path style=" stroke:none;fill-rule:nonzero;fill:rgb(14.901961%,63.529414%,41.176471%);fill-opacity:1;" d="M 28 16 L 100 16 C 104.417969 16 108 19.582031 108 24 L 108 112 C 108 116.417969 104.417969 120 100 120 L 28 120 C 23.582031 120 20 116.417969 20 112 L 20 24 C 20 19.582031 23.582031 16 28 16 Z M 28 16 "/>
<path style=" stroke:none;fill-rule:nonzero;fill:url(#linear0);" d="M 28 16 L 100 16 C 104.417969 16 108 19.582031 108 24 L 108 110 C 108 114.417969 104.417969 118 100 118 L 28 118 C 23.582031 118 20 114.417969 20 110 L 20 24 C 20 19.582031 23.582031 16 28 16 Z M 28 16 "/>
<path style=" stroke:none;fill-rule:nonzero;fill:rgb(87.058824%,86.666667%,85.490197%);fill-opacity:1;" d="M 28 8 L 100 8 C 104.417969 8 108 11.582031 108 16 L 108 104 C 108 108.417969 104.417969 112 100 112 L 28 112 C 23.582031 112 20 108.417969 20 104 L 20 16 C 20 11.582031 23.582031 8 28 8 Z M 28 8 "/>
<path style=" stroke:none;fill-rule:nonzero;fill:rgb(11.764706%,45.09804%,49.411765%);fill-opacity:1;" d="M 28 16 L 100 16 C 104.417969 16 108 19.582031 108 24 L 108 112 C 108 116.417969 104.417969 120 100 120 L 28 120 C 23.582031 120 20 116.417969 20 112 L 20 24 C 20 19.582031 23.582031 16 28 16 Z M 28 16 "/>
<path style=" stroke:none;fill-rule:nonzero;fill:url(#linear1);" d="M 28 16 L 100 16 C 104.417969 16 108 19.582031 108 24 L 108 110 C 108 114.417969 104.417969 118 100 118 L 28 118 C 23.582031 118 20 114.417969 20 110 L 20 24 C 20 19.582031 23.582031 16 28 16 Z M 28 16 "/>
<path style=" stroke:none;fill-rule:nonzero;fill:rgb(11.764706%,45.09804%,49.411765%);fill-opacity:1;" d="M 28 8 L 100 8 C 104.417969 8 108 11.582031 108 16 L 108 100 C 108 104.417969 104.417969 108 100 108 L 28 108 C 23.582031 108 20 104.417969 20 100 L 20 16 C 20 11.582031 23.582031 8 28 8 Z M 28 8 "/>
<path style=" stroke:none;fill-rule:nonzero;fill:rgb(15.294118%,62.7451%,64.313728%);fill-opacity:1;" d="M 28 8 L 100 8 C 104.417969 8 108 11.582031 108 16 L 108 98 C 108 102.417969 104.417969 106 100 106 L 28 106 C 23.582031 106 20 102.417969 20 98 L 20 16 C 20 11.582031 23.582031 8 28 8 Z M 28 8 "/>
<path style=" stroke:none;fill-rule:nonzero;fill:rgb(11.764706%,45.09804%,49.411765%);fill-opacity:1;" d="M 66.484375 38.921875 L 64.734375 57.152344 C 64.453125 60.171875 64.3125 65.191406 64.3125 68.210938 C 64.3125 73.96875 64.976562 77.472656 66.304688 78.71875 C 67.671875 79.929688 69.222656 80.53125 70.953125 80.53125 C 74.820312 80.53125 77.113281 78.097656 77.839844 73.222656 L 80.074219 73.222656 C 78.746094 84.417969 74.296875 90.015625 66.726562 90.015625 C 58.792969 90.015625 54.828125 85.464844 54.828125 76.363281 C 54.828125 71.773438 55.269531 64.058594 56.15625 57.210938 L 58.390625 38.921875 L 52.414062 38.921875 C 49.109375 38.921875 46.535156 39.484375 44.683594 40.613281 C 42.871094 41.699219 41.179688 43.75 39.609375 47.09375 L 37.433594 47.09375 C 38.722656 42.664062 40.253906 39.324219 42.023438 36.746094 C 43.796875 34.128906 45.488281 33.273438 47.097656 32.390625 C 48.707031 31.464844 51.105469 31 54.285156 31 L 84 31 L 84 38.921875 Z M 66.484375 38.921875 "/>
<path style=" stroke:none;fill-rule:nonzero;fill:rgb(100%,100%,100%);fill-opacity:1;" d="M 66.484375 39.921875 L 64.734375 58.152344 C 64.453125 61.171875 64.3125 66.191406 64.3125 69.210938 C 64.3125 74.96875 64.976562 78.472656 66.304688 79.71875 C 67.671875 80.929688 69.222656 81.53125 70.953125 81.53125 C 74.820312 81.53125 77.113281 79.097656 77.839844 74.222656 L 80.074219 74.222656 C 78.746094 85.417969 74.296875 91.015625 66.726562 91.015625 C 58.792969 91.015625 54.828125 86.464844 54.828125 77.363281 C 54.828125 72.773438 55.269531 65.058594 56.15625 58.210938 L 58.390625 39.921875 L 52.414062 39.921875 C 49.109375 39.921875 46.535156 40.484375 44.683594 41.613281 C 42.871094 42.699219 41.179688 44.75 39.609375 48.09375 L 37.433594 48.09375 C 38.722656 43.664062 40.253906 40.324219 42.023438 37.746094 C 43.796875 35.128906 45.488281 34.273438 47.097656 33.390625 C 48.707031 32.464844 51.105469 32 54.285156 32 L 84 32 L 84 39.921875 Z M 66.484375 39.921875 "/>
<path style=" stroke:none;fill-rule:nonzero;fill:rgb(94.901961%,41.960785%,61.960787%);fill-opacity:1;" d="M 116 80.070312 L 96 80.070312 L 96 88.070312 L 116 88.070312 Z M 116 80.070312 "/>
<path style=" stroke:none;fill-rule:nonzero;fill:url(#radial0);" d="M 96 88.070312 C 96 93.59375 100.476562 98.070312 106 98.070312 C 111.523438 98.070312 116 93.59375 116 88.070312 C 116 82.546875 111.523438 78.070312 106 78.070312 C 100.476562 78.070312 96 82.546875 96 88.070312 Z M 96 88.070312 "/>
<path style=" stroke:none;fill-rule:nonzero;fill:url(#linear2);" d="M 106 25.929688 L 96 40.070312 L 116 40.070312 Z M 106 25.929688 "/>
<path style=" stroke:none;fill-rule:nonzero;fill:rgb(14.117648%,12.156863%,19.215687%);fill-opacity:1;" d="M 106 25.929688 L 101.65625 32.070312 L 110.34375 32.070312 Z M 106 25.929688 "/>
<path style=" stroke:none;fill-rule:nonzero;fill:rgb(96.470588%,82.745099%,17.647059%);fill-opacity:1;" d="M 114 40 L 98 40 L 98 77.953125 L 114 77.953125 Z M 114 40 "/>
<path style=" stroke:none;fill-rule:nonzero;fill:rgb(97.647059%,94.117647%,41.960785%);fill-opacity:1;" d="M 102 40 L 96 40 L 96 77.953125 L 102 77.953125 Z M 102 40 "/>
<path style=" stroke:none;fill-rule:nonzero;fill:rgb(89.803922%,64.705884%,3.921569%);fill-opacity:1;" d="M 110 40 L 116 40 L 116 77.953125 L 110 77.953125 Z M 110 40 "/>
<path style=" stroke:none;fill-rule:nonzero;fill:url(#linear3);" d="M 116 76.070312 L 96 76.070312 L 96 84.070312 L 116 84.070312 Z M 116 76.070312 "/>
<path style="fill-rule:nonzero;fill:rgb(23.921569%,21.960784%,27.450982%);fill-opacity:1;stroke-width:2;stroke-linecap:butt;stroke-linejoin:miter;stroke:rgb(14.117648%,12.156863%,19.215687%);stroke-opacity:1;stroke-miterlimit:4;" d="M 35 187 C 35 188.65625 33.65625 190 32 190 C 30.34375 190 29 188.65625 29 187 C 29 185.34375 30.34375 184 32 184 C 33.65625 184 35 185.34375 35 187 Z M 35 187 " transform="matrix(1,0,0,1,0,-169)"/>
<path style="fill-rule:nonzero;fill:rgb(23.921569%,21.960784%,27.450982%);fill-opacity:1;stroke-width:2;stroke-linecap:butt;stroke-linejoin:miter;stroke:rgb(14.117648%,12.156863%,19.215687%);stroke-opacity:1;stroke-miterlimit:4;" d="M 99 187 C 99 188.65625 97.65625 190 96 190 C 94.34375 190 93 188.65625 93 187 C 93 185.34375 94.34375 184 96 184 C 97.65625 184 99 185.34375 99 187 Z M 99 187 " transform="matrix(1,0,0,1,0,-169)"/>
<path style="fill-rule:nonzero;fill:rgb(23.921569%,21.960784%,27.450982%);fill-opacity:1;stroke-width:2;stroke-linecap:butt;stroke-linejoin:miter;stroke:rgb(14.117648%,12.156863%,19.215687%);stroke-opacity:1;stroke-miterlimit:4;" d="M 51 187 C 51 188.65625 49.65625 190 48 190 C 46.34375 190 45 188.65625 45 187 C 45 185.34375 46.34375 184 48 184 C 49.65625 184 51 185.34375 51 187 Z M 51 187 " transform="matrix(1,0,0,1,0,-169)"/>
<path style="fill-rule:nonzero;fill:rgb(23.921569%,21.960784%,27.450982%);fill-opacity:1;stroke-width:2;stroke-linecap:butt;stroke-linejoin:miter;stroke:rgb(14.117648%,12.156863%,19.215687%);stroke-opacity:1;stroke-miterlimit:4;" d="M 67 187 C 67 188.65625 65.65625 190 64 190 C 62.34375 190 61 188.65625 61 187 C 61 185.34375 62.34375 184 64 184 C 65.65625 184 67 185.34375 67 187 Z M 67 187 " transform="matrix(1,0,0,1,0,-169)"/>
<path style="fill-rule:nonzero;fill:rgb(23.921569%,21.960784%,27.450982%);fill-opacity:1;stroke-width:2;stroke-linecap:butt;stroke-linejoin:miter;stroke:rgb(14.117648%,12.156863%,19.215687%);stroke-opacity:1;stroke-miterlimit:4;" d="M 83 187 C 83 188.65625 81.65625 190 80 190 C 78.34375 190 77 188.65625 77 187 C 77 185.34375 78.34375 184 80 184 C 81.65625 184 83 185.34375 83 187 Z M 83 187 " transform="matrix(1,0,0,1,0,-169)"/>
<path style="fill:none;stroke-width:4;stroke-linecap:round;stroke-linejoin:miter;stroke:url(#linear4);stroke-miterlimit:4;" d="M 32 190 L 32 174 " transform="matrix(1,0,0,1,0,-172)"/>
<path style="fill:none;stroke-width:4;stroke-linecap:round;stroke-linejoin:miter;stroke:url(#linear5);stroke-miterlimit:4;" d="M 32 190 L 32 174 " transform="matrix(1,0,0,1,16,-172)"/>
<path style="fill:none;stroke-width:4;stroke-linecap:round;stroke-linejoin:miter;stroke:url(#linear6);stroke-miterlimit:4;" d="M 32 190 L 32 174 " transform="matrix(1,0,0,1,32,-172)"/>
<path style="fill:none;stroke-width:4;stroke-linecap:round;stroke-linejoin:miter;stroke:url(#linear7);stroke-miterlimit:4;" d="M 32 190 L 32 174 " transform="matrix(1,0,0,1,48,-172)"/>
<path style="fill:none;stroke-width:4;stroke-linecap:round;stroke-linejoin:miter;stroke:url(#linear8);stroke-miterlimit:4;" d="M 32 190 L 32 174 " transform="matrix(1,0,0,1,64,-172)"/>
</g>
</svg>
